<?xml version="1.0" encoding="UTF-8" standalone="no"?>
<!-- Created with Inkscape (http://www.inkscape.org/) -->

<svg
   xmlns:dc="http://purl.org/dc/elements/1.1/"
   xmlns:cc="http://creativecommons.org/ns#"
   xmlns:rdf="http://www.w3.org/1999/02/22-rdf-syntax-ns#"
   xmlns:svg="http://www.w3.org/2000/svg"
   xmlns="http://www.w3.org/2000/svg"
   xmlns:sodipodi="http://sodipodi.sourceforge.net/DTD/sodipodi-0.dtd"
   xmlns:inkscape="http://www.inkscape.org/namespaces/inkscape"
   width="700mm"
   height="700mm"
   viewBox="0 0 700 700"
   version="1.1"
   id="svg1847"
   inkscape:version="0.92.3 (2405546, 2018-03-11)"
   sodipodi:docname="philco-logo.svg"
   inkscape:export-filename="C:\Users\alex\sites\philco-logo-0.png"
   inkscape:export-xdpi="148.6263"
   inkscape:export-ydpi="148.6263">
  <defs
     id="defs1841" />
  <sodipodi:namedview
     id="base"
     pagecolor="#ffffff"
     bordercolor="#666666"
     borderopacity="1.0"
     inkscape:pageopacity="0.0"
     inkscape:pageshadow="2"
     inkscape:zoom="0.12374369"
     inkscape:cx="-514.58048"
     inkscape:cy="1299.866"
     inkscape:document-units="mm"
     inkscape:current-layer="layer1"
     showgrid="false"
     inkscape:window-width="1600"
     inkscape:window-height="838"
     inkscape:window-x="-8"
     inkscape:window-y="-8"
     inkscape:window-maximized="1" />
  <metadata
     id="metadata1844">
    <rdf:RDF>
      <cc:Work
         rdf:about="">
        <dc:format>image/svg+xml</dc:format>
        <dc:type
           rdf:resource="http://purl.org/dc/dcmitype/StillImage" />
        <dc:title></dc:title>
      </cc:Work>
    </rdf:RDF>
  </metadata>
  <g
     inkscape:label="Camada 1"
     inkscape:groupmode="layer"
     id="layer1"
     transform="translate(0,403)">
    <path
       d="m 566.12933,-89.082952 1.50339,0.01821 1.4867,0.05691 1.47132,0.07588 1.45198,0.113821 1.43813,0.151762 1.42163,0.189702 1.41328,0.220054 1.38539,0.250407 1.37932,0.288346 1.36017,0.316803 1.34612,0.352846 1.33077,0.383197 1.31823,0.419242 1.30136,0.45149 1.28997,0.485638 1.27289,0.515989 1.26342,0.553929 1.24824,0.584283 1.23496,0.620325 1.22169,0.652575 1.21029,0.690515 1.19702,0.71897 1.18943,0.758808 1.16857,0.787263 1.16098,0.827101 1.14769,0.861247 1.13821,0.895393 1.12114,0.927642 1.10976,0.967481 1.10027,1.001625 1.08888,1.035773 1.07562,1.071817 1.05664,1.098374 1.0168,1.104065 0.98455,1.119242 0.94851,1.13252 0.91247,1.143902 0.87832,1.153389 0.84417,1.166667 0.81003,1.179945 0.77967,1.193227 0.74174,1.204606 0.70949,1.21599 0.67533,1.229269 0.64309,1.246342 0.60894,1.257724 0.5748,1.267209 0.54065,1.284282 0.5122,1.303252 0.47805,1.31084 0.44391,1.32412 0.41165,1.341193 0.37939,1.358266 0.34527,1.367751 0.3111,1.382928 0.28077,1.401897 0.25041,1.417074 0.21435,1.428455 0.18971,1.447426 0.15176,1.460705 0.11382,1.479675 0.0759,1.494851 0.0379,1.510028 0.0152,1.525196 -0.0152,1.534692 -0.0379,1.513826 -0.0759,1.498646 -0.11382,1.479675 -0.15176,1.468294 -0.18971,1.447418 -0.21435,1.434153 -0.24662,1.418972 -0.27697,1.405686 -0.3092,1.384821 -0.34527,1.371545 -0.3775,1.356374 -0.40786,1.343089 -0.44201,1.326013 -0.47425,1.312738 -0.5084,1.2975664 -0.53686,1.2880714 -0.5729,1.2672154 -0.60325,1.2558249 -0.63929,1.2463395 -0.66966,1.2330639 -0.70379,1.212198 -0.73605,1.2027125 -0.77588,1.1913222 -0.80244,1.1818467 -0.83848,1.1590756 -0.87263,1.1514953 -0.90867,1.1401049 -0.94092,1.1287244 -0.97696,1.1116585 -1.00922,1.1021624 -1.04715,1.088888 -1.06992,1.068022 -1.0832,1.03009 -1.08889,0.992138 -1.10596,0.956102 -1.12114,0.927636 -1.12873,0.885913 -1.142,0.851762 -1.15909,0.819506 -1.17235,0.789165 -1.17995,0.751223 -1.19323,0.715176 -1.21219,0.681025 -1.22357,0.650683 -1.23496,0.612732 -1.25014,0.580485 -1.27101,0.548239 -1.28048,0.517888 -1.29187,0.481841 -1.30515,0.445804 -1.32621,0.415444 -1.33796,0.385101 -1.35296,0.349046 -1.36908,0.314904 -1.39052,0.284552 -1.40076,0.252306 -1.41422,0.216259 -1.43301,0.189709 -1.45597,0.151756 -1.4662,0.113825 -1.4848,0.0759 -1.49617,0.05695 -1.52502,0.01461 -1.51477,-0.01461 -1.49448,-0.05695 -1.47929,-0.0759 -1.46829,-0.113825 -1.45046,-0.151756 -1.43187,-0.189709 -1.41253,-0.216259 -1.40189,-0.252306 -1.3854,-0.284552 -1.37097,-0.314904 -1.35333,-0.349046 -1.33968,-0.385101 -1.32298,-0.415444 -1.30875,-0.447699 -1.29548,-0.481841 -1.28067,-0.517888 -1.26835,-0.548239 -1.25014,-0.580485 -1.2361,-0.614637 -1.2268,-0.650673 -1.21163,-0.681035 -1.19379,-0.715176 -1.18564,-0.751223 -1.17406,-0.789155 -1.15852,-0.817621 -1.14446,-0.853657 -1.13044,-0.887799 -1.12152,-0.923855 -1.10596,-0.957987 -1.09439,-0.992148 -1.08187,-1.03008 -1.07163,-1.068022 -1.04772,-1.088888 -1.01396,-1.1021725 -0.9781,-1.1135437 -0.94642,-1.1287244 -0.90906,-1.1363246 -0.87718,-1.1552756 -0.84265,-1.1628758 -0.80871,-1.1799515 -0.77151,-1.1856369 -0.7423,-1.2046076 -0.70646,-1.214093 -0.67591,-1.2349591 -0.63986,-1.2425394 -0.6097,-1.2577298 -0.57423,-1.2691006 -0.54349,-1.284291 -0.50518,-1.2937665 -0.4771,-1.316528 -0.44295,-1.326013 -0.4109,-1.341194 -0.37808,-1.358269 -0.34867,-1.37344 -0.31396,-1.384831 -0.28171,-1.403791 -0.24433,-1.415172 -0.21815,-1.436048 -0.18022,-1.449323 -0.14987,-1.464494 -0.11382,-1.479675 -0.0854,-1.504341 -0.0474,-1.510026 -0.0135,-1.532797 0.0135,-1.530892 0.0474,-1.51761 0.0854,-1.500543 0.11382,-1.485367 0.14987,-1.466396 0.18211,-1.453116 0.21816,-1.436044 0.24566,-1.420868 0.28171,-1.4 0.31377,-1.388618 0.34734,-1.375339 0.37884,-1.358267 0.41165,-1.341192 0.44314,-1.331708 0.48052,-1.314635 0.5065,-1.301355 0.54274,-1.280488 0.57688,-1.274798 0.60838,-1.259621 0.64176,-1.242547 0.67591,-1.231166 0.70834,-1.217886 0.74345,-1.208402 0.77645,-1.193225 0.81098,-1.17805 0.84474,-1.168564 0.88002,-1.153387 0.90925,-1.142006 0.9504,-1.130623 0.98247,-1.121139 1.01699,-1.107859 1.04677,-1.08889 1.07353,-1.05664 1.09041,-1.033875 1.10159,-0.992141 1.11298,-0.963686 1.12683,-0.923849 1.13784,-0.889702 1.1513,-0.857453 1.15869,-0.821409 1.17313,-0.783469 1.18867,-0.756911 1.19778,-0.715177 1.21163,-0.686721 1.22794,-0.650677 1.23932,-0.620325 1.2507,-0.584283 1.26019,-0.550135 1.28049,-0.515989 1.2913,-0.483741 1.30876,-0.449593 1.31937,-0.419242 1.33645,-0.3813 1.35125,-0.352846 1.36263,-0.316803 1.37819,-0.286449 1.39677,-0.250407 1.41214,-0.220054 1.42561,-0.189702 1.44363,-0.151762 1.45786,-0.113821 1.47341,-0.07588 1.48784,-0.05691 z m 0.0474,32.280063 -1.31274,0.03794 -1.24483,0.09485 -1.22679,0.151761 -1.22074,0.212467 -1.19702,0.278862 -1.17729,0.339567 -1.15528,0.402167 -1.13783,0.464771 -1.10901,0.531165 -1.07996,0.582384 -1.05077,0.646885 -1.02609,0.701896 -0.99328,0.760705 -0.96387,0.811925 -0.93486,0.870732 -0.9081,0.921951 -0.86277,0.965583 -0.80832,0.994038 -0.75501,1.026288 -0.70493,1.058537 -0.64518,1.086992 -0.59301,1.109756 -0.53799,1.1458 -0.48394,1.172359 -0.42303,1.198916 -0.36745,1.22168 -0.3058,1.238754 -0.25306,1.257724 -0.19616,1.284282 -0.14037,1.299459 -0.0815,1.318432 -0.0265,1.335499 0.0265,1.324127 0.0815,1.301347 0.13658,1.286186 0.19141,1.269101 0.25022,1.252025 0.30713,1.225473 0.36081,1.206503 0.42151,1.181857 0.48052,1.162876 0.538,1.132514 0.59225,1.104068 0.6465,1.073717 0.70494,1.045251 0.75614,1.011119 0.81155,0.980758 0.84891,0.933331 0.88762,0.902979 0.92745,0.857458 0.96199,0.810021 0.99498,0.7512226 1.02705,0.6961956 1.05322,0.6336077 1.0849,0.5786002 1.10996,0.5140875 1.13707,0.4552899 1.16496,0.3964724 1.18525,0.3319795 1.20214,0.2712768 1.22074,0.2105642 1.24046,0.1517666 1.25715,0.094854 1.31388,0.037902 2.44875,-0.1138151 2.4364,-0.366121 2.3659,-0.616532 2.27565,-0.8688379 2.1806,-1.1116586 2.06965,-1.3525741 1.95192,-1.5745183 1.79762,-1.758543 0.8897,-0.986453 0.80623,-0.988348 0.75692,-1.014899 0.6981,-1.043366 0.65067,-1.069917 0.59377,-1.102163 0.54065,-1.124934 0.47805,-1.1496 0.42873,-1.166666 0.36612,-1.198913 0.31301,-1.215988 0.25231,-1.238759 0.19729,-1.24634 0.13278,-1.271005 0.0759,-1.288072 0.019,-1.295661 -0.019,-1.312738 -0.0759,-1.305159 -0.13278,-1.284282 -0.19729,-1.263415 -0.24852,-1.248239 -0.31301,-1.229268 -0.36612,-1.206505 -0.42493,-1.18374 -0.47805,-1.159078 -0.53875,-1.136315 -0.58997,-1.111654 -0.65069,-1.086992 -0.6962,-1.050949 -0.75122,-1.024391 -0.80054,-0.997832 -0.8897,-1.007317 -1.79534,-1.783199 -1.95102,-1.604878 -2.06775,-1.373442 -2.18356,-1.136315 -2.28184,-0.885908 -2.37234,-0.631708 -2.44154,-0.373712 -2.45795,-0.113821 z"
       style="fill:#000000;fill-opacity:1;fill-rule:evenodd;stroke:none;stroke-width:3.65270376"
       id="path116-6-0"
       inkscape:connector-curvature="0"
       inkscape:export-filename="C:\Users\alex\sites\philco-logo.png"
       inkscape:export-xdpi="189.91161"
       inkscape:export-ydpi="189.91161" />
    <path
       d="m 477.6949,28.089683 -1.54077,-0.0759 -1.52311,-0.113815 -1.49732,-0.151767 -1.47873,-0.170727 -1.45539,-0.210574 -1.44022,-0.242821 -1.41327,-0.273162 -1.39488,-0.305428 -1.37383,-0.33577 -1.35541,-0.369921 -1.33039,-0.398367 -1.31502,-0.432519 -1.29338,-0.464776 -1.27669,-0.495116 -1.25166,-0.523583 -1.23819,-0.55962 -1.21352,-0.588075 -1.19929,-0.622228 -1.17824,-0.650673 -1.16154,-0.684825 -1.14334,-0.715176 -1.12645,-0.749318 -1.10464,-0.777784 -1.08926,-0.813821 -1.07182,-0.844172 -1.05702,-0.880218 -1.03558,-0.91057 -1.02193,-0.946616 -1.00409,-0.978853 -0.9891,-1.013014 -0.95781,-1.033874 -0.93068,-1.0566407 -0.89862,-1.0775066 -0.87186,-1.0983731 -0.83697,-1.1135536 -0.80756,-1.1344196 -0.77551,-1.1514854 -0.74723,-1.1742563 -0.71442,-1.1913321 -0.68558,-1.21219794 -0.65315,-1.23306396 -0.62507,-1.2539298 -0.59224,-1.2747957 -0.56815,-1.2956617 -0.53478,-1.3146325 -0.50651,-1.3392985 -0.47311,-1.3544693 -0.4458,-1.3829252 -0.4143,-1.400002 -0.38548,-1.418972 -0.35076,-1.447428 -0.32591,-1.468294 -0.29176,-1.489161 -0.26558,-1.515721 -0.23087,-1.528997 -0.20204,-1.559348 -0.17072,-1.578319 -0.14229,-1.602985 -0.10622,-1.623841 -0.0796,-1.650412 -0.0399,-1.667478 -0.0135,-1.690249 0.0135,-1.59539 0.0474,-1.57832 0.0816,-1.55935 0.10812,-1.534689 0.14987,-1.510027 0.17831,-1.496748 0.21077,-1.473985 0.24035,-1.447425 0.27507,-1.424662 0.30655,-1.411383 0.33786,-1.386721 0.36746,-1.363957 0.40292,-1.344987 0.4329,-1.326016 0.46306,-1.30515 0.49114,-1.284282 0.52662,-1.261519 0.55943,-1.246341 0.593,-1.227372 0.619,-1.210299 0.65447,-1.185636 0.68445,-1.172359 0.71745,-1.15149 0.74781,-1.132521 0.78271,-1.11355 0.81591,-1.102168 0.84588,-1.079405 0.87775,-1.064228 0.91133,-1.039567 0.94642,-1.030082 0.98265,-1.013008 1.00846,-0.994037 1.03729,-0.963687 1.0572,-0.939025 1.07903,-0.904878 1.09325,-0.872628 1.11735,-0.842277 1.13366,-0.815719 1.15433,-0.781572 1.16705,-0.75122 1.1919,-0.717073 1.21352,-0.694309 1.23306,-0.656369 1.24881,-0.631708 1.27138,-0.595664 1.29302,-0.571003 1.315,-0.538753 1.3285,-0.508402 1.35124,-0.474254 1.37818,-0.449594 1.40077,-0.417344 1.4165,-0.386992 1.43908,-0.354743 1.46393,-0.328184 1.48384,-0.294038 1.50169,-0.265582 1.53013,-0.233334 1.55195,-0.202982 1.57282,-0.170731 1.59255,-0.132791 1.6174,-0.113822 1.64016,-0.07588 1.6616,-0.03794 1.68285,-0.01802 1.16363,0.0148 1.16268,0.03794 1.15984,0.05691 1.1513,0.07588 1.15244,0.09485 1.14618,0.113821 1.14125,0.132792 1.15415,0.151762 1.14522,0.170731 1.11109,0.189702 1.11412,0.218157 1.11013,0.239024 1.11299,0.269377 0.51466,0.132792 v 31.51196 l -0.44903,-0.09485 -1.24273,-0.269377 -1.19191,-0.244715 -1.14902,-0.216261 -1.07466,-0.189701 -1.03255,-0.170733 -1.03843,-0.151761 -1.01358,-0.132791 -0.99403,-0.113821 -0.97014,-0.07588 -0.94756,-0.05691 -0.92783,-0.03794 -0.91209,-0.01461 -1.60051,0.01897 -1.56998,0.07588 -1.53128,0.132791 -1.5013,0.170732 -1.46108,0.23523 -1.42675,0.280759 -1.38843,0.341464 -1.36054,0.392682 -1.31937,0.451491 -1.28353,0.506504 -1.23856,0.563416 -1.20404,0.620325 -1.16079,0.68103 -1.1162,0.736043 -1.06631,0.789161 -1.04508,0.861246 -0.97526,0.927643 -0.90298,0.950406 -0.84359,1.001627 -0.79012,1.047155 -0.72143,1.092683 -0.65978,1.132521 -0.59359,1.174255 -0.53135,1.206504 -0.46249,1.252033 -0.39952,1.276695 -0.33463,1.308943 -0.27564,1.34309 -0.20734,1.377236 -0.14987,1.396206 -0.0891,1.428459 -0.0342,1.460704 0.0342,1.434153 0.0967,1.405686 0.15935,1.377241 0.22082,1.358259 0.29309,1.335508 0.35474,1.299452 0.42171,1.272901 0.48715,1.240654 0.5581,1.214093 0.62166,1.176152 0.68766,1.14201 0.75464,1.100268 0.81269,1.058536 0.87414,1.020595 0.9358,0.978862 1.00011,0.942817 1.05209,0.885914 1.08623,0.828991 1.13593,0.7720889 1.17179,0.7132811 1.20841,0.6525785 1.24672,0.5956562 1.28712,0.5387535 1.31616,0.4780509 1.3501,0.4211384 1.38217,0.3623308 1.4186,0.3073234 1.4421,0.2428107 1.47342,0.1953936 1.5087,0.1327957 1.53052,0.075903 1.53734,0.018951 0.91247,-0.00296 0.91512,-0.018951 0.93391,-0.037902 0.94528,-0.056952 0.97014,-0.075903 0.98986,-0.094854 1.0075,-0.094854 1.01396,-0.1138249 1.04982,-0.1327859 1.09647,-0.1327958 1.14732,-0.1517567 1.18981,-0.1707374 0.55545,-0.075903 V 26.2422 l -0.99613,0.206774 -1.35219,0.254201 -1.34499,0.240925 -1.33569,0.212469 -1.33133,0.189699 -1.36395,0.170727 -1.34613,0.170738 -1.33038,0.132786 -1.34082,0.113824 -1.35124,0.09486 -1.35429,0.0759 -1.36585,0.05695 -1.37078,0.0379 -1.37705,0.01046 -1.59027,-0.01441 -1.56448,-0.05685 z"
       style="fill:#000000;fill-opacity:1;fill-rule:evenodd;stroke:none;stroke-width:3.65270376"
       id="path118-9-9"
       inkscape:connector-curvature="0"
       inkscape:export-filename="C:\Users\alex\sites\philco-logo.png"
       inkscape:export-xdpi="189.91161"
       inkscape:export-ydpi="189.91161" />
    <path
       d="M 372.49579,26.306673 V -134.35305 h 31.85967 V 26.306673 Z"
       style="fill:#000000;fill-opacity:1;fill-rule:evenodd;stroke:none;stroke-width:3.65270376"
       id="path120-0-2"
       inkscape:connector-curvature="0"
       inkscape:export-filename="C:\Users\alex\sites\philco-logo.png"
       inkscape:export-xdpi="189.91161"
       inkscape:export-ydpi="189.91161" />
    <path
       d="m 317.06391,-105.65038 v -28.74213 h 31.86187 v 28.74213 z"
       style="fill:#000000;fill-opacity:1;fill-rule:evenodd;stroke:none;stroke-width:3.65270376"
       id="path122-0-5"
       inkscape:connector-curvature="0"
       inkscape:export-filename="C:\Users\alex\sites\philco-logo.png"
       inkscape:export-xdpi="189.91161"
       inkscape:export-ydpi="189.91161" />
    <path
       d="M 317.06391,26.306673 V -86.997559 h 31.86187 V 26.306673 Z"
       style="fill:#000000;fill-opacity:1;fill-rule:evenodd;stroke:none;stroke-width:3.65270376"
       id="path124-4-3"
       inkscape:connector-curvature="0"
       inkscape:export-filename="C:\Users\alex\sites\philco-logo.png"
       inkscape:export-xdpi="189.91161"
       inkscape:export-ydpi="189.91161" />
    <path
       d="M 198.12633,26.306673 V -134.35305 h 31.86146 v 64.832163 l 8.28429,-9.309245 1.24482,-1.253929 1.31065,-1.168565 1.37079,-1.090785 1.43851,-1.009215 1.50528,-0.933334 1.57908,-0.853658 1.65875,-0.78347 0.80775,-0.333875 0.85935,-0.330082 0.86979,-0.305419 0.88325,-0.286451 0.89672,-0.261788 0.91532,-0.242819 0.93181,-0.220054 0.93504,-0.19729 0.95344,-0.170731 0.97356,-0.151762 0.98246,-0.132792 0.99613,-0.113821 1.01585,-0.07588 1.02723,-0.05691 1.03843,-0.03794 1.03521,-0.0148 1.97066,0.03794 1.88108,0.113822 1.80692,0.189701 1.73312,0.256098 1.65988,0.331979 1.58629,0.40027 1.52008,0.468565 1.4442,0.534959 1.38218,0.603252 1.32051,0.669648 1.25678,0.736043 1.19265,0.80244 1.14333,0.872628 1.087,0.940922 1.03672,1.014906 0.97526,1.07561 0.92043,1.159078 0.86865,1.236857 0.81704,1.314635 0.75862,1.388619 0.70644,1.468293 0.64917,1.547968 0.59225,1.631436 0.53476,1.711112 0.47653,1.798374 0.41299,1.874255 0.35266,1.964175 0.2891,2.046884 0.2303,2.129974 0.16314,2.210596 0.0967,2.296342 0.0342,2.404283 v 77.923119 h -31.86275 v -60.440373 l -0.0399,-2.600056 -0.12901,-2.458916 -0.22023,-2.290272 -0.3206,-2.128835 -0.42361,-1.97347 -0.54482,-1.836314 -0.69184,-1.703524 -0.85518,-1.547968 -1.03881,-1.403795 -1.23932,-1.24065 -1.4038,-1.045258 -1.54797,-0.838482 -1.64945,-0.62412 -1.72989,-0.423035 -1.79667,-0.242819 -1.88962,-0.07588 -1.93693,0.09485 -1.89399,0.295935 -1.82133,0.508401 -1.73236,0.722765 -1.61607,0.940922 -1.48194,1.145799 -1.32299,1.327914 -1.1587,1.479676 -1.00561,1.620054 -0.85726,1.749052 -0.70209,1.870461 -0.55811,1.975367 -0.4162,2.08141 -0.29441,2.181762 -0.17264,2.298619 -0.0531,2.365773 v 60.218608 h -31.86132 z"
       style="fill:#000000;fill-opacity:1;fill-rule:evenodd;stroke:none;stroke-width:3.65270376"
       id="path126-0-6"
       inkscape:connector-curvature="0"
       inkscape:export-filename="C:\Users\alex\sites\philco-logo.png"
       inkscape:export-xdpi="189.91161"
       inkscape:export-ydpi="189.91161" />
    <path
       d="M 76.088364,26.306673 V -134.35305 h 39.878776 l 2.19748,0.0181 2.14748,0.0379 2.10901,0.0759 2.06777,0.0948 2.03129,0.13279 1.9951,0.15177 1.95715,0.18969 1.91647,0.20868 1.88128,0.24092 1.842,0.26558 1.80483,0.29784 1.76649,0.32059 1.72819,0.34716 1.68759,0.37371 1.65173,0.40406 1.60906,0.42494 1.57358,0.45718 1.53772,0.48185 1.50017,0.50839 1.46013,0.53307 1.42257,0.55962 1.38103,0.58618 1.34935,0.61273 1.30667,0.6355 1.27479,0.66396 1.23611,0.68672 1.19815,0.71139 1.15984,0.73604 1.12758,0.7645 1.09041,0.78726 1.05494,0.81192 1.0168,0.83659 0.98778,0.86504 0.95268,0.8916 0.92347,0.92006 0.88932,0.94661 0.85841,0.97506 0.82956,1.00353 0.79618,1.03198 0.76412,1.06043 0.73889,1.09269 0.70304,1.12113 0.67742,1.1515 0.64385,1.18183 0.61577,1.2141 0.58353,1.24065 0.55279,1.2748 0.52338,1.30704 0.49588,1.3431 0.46307,1.36964 0.43233,1.403804 0.40083,1.43604 0.37145,1.472087 0.33861,1.504336 0.30656,1.532792 0.2745,1.565041 0.24434,1.604879 0.21341,1.63523 0.18022,1.665584 0.14417,1.697832 0.11572,1.733876 0.0797,1.766125 0.0475,1.800272 0.0135,1.830624 -0.0135,1.77561 -0.0475,1.745258 -0.0778,1.714906 -0.11383,1.690244 -0.14037,1.663686 -0.17453,1.633334 -0.2062,1.604878 -0.23751,1.576424 -0.26843,1.553659 -0.29859,1.521409 -0.32933,1.494852 -0.36195,1.466396 -0.39154,1.447425 -0.42152,1.411383 -0.45168,1.384824 -0.48526,1.363957 -0.512,1.339297 -0.54141,1.307046 -0.57158,1.280488 -0.60495,1.255827 -0.63379,1.236857 -0.66264,1.204606 -0.69146,1.179947 -0.7258,1.159079 -0.75387,1.136314 -0.78271,1.10786 -0.81382,1.083198 -0.84892,1.062332 -0.87415,1.039566 -0.90582,1.013008 -0.93732,0.990245 -0.9709,0.965583 -0.99612,0.940921 -1.01908,0.908673 -1.04583,0.880218 -1.07049,0.849867 -1.09439,0.817611 -1.12246,0.79106 -1.1441,0.760698 -1.17216,0.730357 -1.20101,0.703796 -1.22396,0.675339 -1.24558,0.643083 -1.2784,0.610847 -1.30363,0.588076 -1.33247,0.555829 -1.35959,0.529268 -1.38881,0.497012 -1.41328,0.470461 -1.44212,0.438214 -1.47171,0.411653 -1.49902,0.379406 -1.52539,0.352846 -1.5529,0.318694 -1.58421,0.290247 -1.61966,0.261792 -1.6413,0.233335 -1.66597,0.199184 -1.69822,0.170727 -1.73102,0.132796 -1.75797,0.113825 -1.78509,0.0759 -1.81622,0.0379 -1.86287,0.01806 H 111.72642 V 26.31072 H 76.087263 Z m 35.639096,-79.518504 h 9.24283 l 1.42163,-0.01897 1.42086,-0.07588 1.39241,-0.113821 1.35657,-0.170733 1.33246,-0.210568 1.29908,-0.259892 1.27271,-0.313008 1.23097,-0.364228 1.20139,-0.411653 1.17179,-0.470461 1.14106,-0.52168 1.09553,-0.574797 1.05701,-0.626017 1.02193,-0.684824 0.9838,-0.739837 0.92782,-0.783469 0.88212,-0.828998 0.83355,-0.876423 0.78783,-0.929539 0.71745,-0.967481 0.66454,-0.999728 0.60363,-1.047155 0.54672,-1.079404 0.48184,-1.113551 0.42493,-1.138212 0.36347,-1.179946 0.30789,-1.198917 0.24301,-1.231165 0.1914,-1.248239 0.13469,-1.282385 0.0797,-1.301355 0.0208,-1.32412 -0.0208,-1.384825 -0.0778,-1.362059 -0.13089,-1.335503 -0.18971,-1.307046 -0.24168,-1.272899 -0.30181,-1.246343 -0.35474,-1.217886 -0.41887,-1.185637 -0.47312,-1.147697 -0.53799,-1.117345 -0.59756,-1.077507 -0.65979,-1.037669 -0.71214,-0.988348 -0.7755,-0.950406 -0.83146,-0.902982 -0.88325,-0.851762 -0.92043,-0.796748 -0.98152,-0.753117 -1.02648,-0.694309 -1.06954,-0.639295 -1.10881,-0.580496 -1.15036,-0.53116 -1.18866,-0.470464 -1.22472,-0.41925 -1.25905,-0.36233 -1.28619,-0.3111 -1.32449,-0.26179 -1.36244,-0.21247 -1.39279,-0.17073 -1.42448,-0.11382 -1.45482,-0.0759 -1.4607,-0.019 h -9.01017 v 48.858886 z"
       style="fill:#000000;fill-opacity:1;fill-rule:evenodd;stroke:none;stroke-width:3.65270376"
       id="path128-6-0"
       inkscape:connector-curvature="0"
       inkscape:export-filename="C:\Users\alex\sites\philco-logo.png"
       inkscape:export-xdpi="189.91161"
       inkscape:export-ydpi="189.91161" />
  </g>
</svg>
