<svg  xmlns="http://www.w3.org/2000/svg" height="142.03" width="260" viewBox="0 0 260.00001 142.02798">
<title>Brastemp</title>
<path d="m259.45,66.139c-0.012-7.5903-4.398-18.2-9.7621-23.578l-32.26-32.249c-5.36-5.382-15.97-9.7636-23.57-9.7636h-179.5c-0.15015,0-0.28942,0-0.4287,0.0022-0.1458-0.0022-0.28181-0.0022-0.4374-0.0022-7.1529,0-12.945,5.7918-12.945,12.942,0,0.15233,0,0.29704,0.001088,0.45154-0.001088,0.14145,0.00544,0.27419,0.00544,0.41673v61.541c0,7.5958,4.3882,18.197,9.7567,23.562l32.249,32.264c5.3674,5.3674,15.978,9.7545,23.573,9.7545h179.51c0.14145,0,0.28616-0.002,0.43414-0.002,0.13818,0,0.28289,0.002,0.43196,0.002,7.1496,0,12.944-5.7928,12.944-12.934,0-0.15559-0.002-0.28833-0.002-0.44175,0-0.14036,0.002-0.28725,0.002-0.42543v-61.541z" fill="#f47d31"/>
<g fill="#FFF">
<path d="m246.51,142.03-0.65175-0.001-0.21544,0.001h-179.5c-7.7416,0-18.492-4.448-23.96-9.9133l-32.25-32.271c-5.4664-5.465-9.9155-16.209-9.9155-23.95l-0.010881-62.41c0-7.4372,6.0562-13.489,13.497-13.489l0.444,0.0044,0.423-0.0044h179.5c7.7557,0,18.504,4.4534,23.96,9.9242l32.259,32.249c5.4577,5.4751,9.909,16.225,9.921,23.963v62.41c0.001,7.4347-6.0518,13.481-13.49,13.481m-0.43196-1.0968,0.43196,0.001c6.833,0,12.395-5.5546,12.395-12.385v-62.401c-0.012-7.4902-4.3196-17.893-9.6011-23.19l-32.26-32.252c-5.27-5.2937-15.68-9.6013-23.18-9.6013h-180.36c-6.8385,0-12.401,5.5611-12.401,12.393l0.00979,0.86827v61.543c0,7.4913,4.3033,17.886,9.5945,23.175l32.249,32.264c5.2912,5.2902,15.693,9.5934,23.186,9.5934l179.94-0.001z"/>
<path d="m49.465,70.873c1.6865-1.0696,2.2327-2.7441,2.2327-3.9899,0-2.2936-1.6103-4.9561-4.7886-4.9561h-18.953v18.193h19.468c2.6647,0,4.9039-2.1783,4.9039-4.8408,0-2.0097-1.1762-3.6755-2.8627-4.4067m-15.406-4.669h9.81c0.52009,0,1.3253,0.44719,1.3253,1.3797,0,0.92376-0.87589,1.2948-1.3253,1.2948h-3.9801l-5.8298,0.05876v-2.7332zm10.431,9.6957h-10.432v-2.7442h10.431c0.64087,0,1.3089,0.57232,1.3089,1.3808,0,0.79864-0.73444,1.3633-1.3089,1.3633"/>
<path d="m78.597,67.511c0-2.9204-2.5461-5.535-5.5839-5.535h-18.197v18.067h6.0159v-6.8211h6.5349l3.9105,6.8211h6.413l-3.9856-6.8896c2.792-0.18606,4.893-2.792,4.893-5.6427m-9.119,1.3677h-8.6468v-2.6168h8.6468c1.9368,0,2.4655,0,2.4655,1.2491,0,1.2415-0.5288,1.3677-2.4655,1.3677"/>
<path d="m123.86,68.879h-10.451c-0.80299,0-1.3024-0.62455-1.3024-1.297,0-0.69854,0.49833-1.3198,1.3024-1.3198h15.41v-4.2859h-16.551c-3.3316,0-6.4468,1.1718-6.6328,5.1672v0.68004c0.1273,3.6548,2.1696,5.4001,6.5153,5.4001h9.7719c0.66916,0,1.3546,0.50486,1.3546,1.3122,0,0.85957-0.80843,1.3644-1.2382,1.3644h-15.646v4.1444h16.339c5.0301,0,7.0811-1.9759,7.0811-5.5622-0.001-2.9171-0.99449-5.6035-5.9593-5.6035"/>
<path d="m93.705,61.977h-3.1042c-1.0609,0-1.9161,0.63869-2.3002,1.3111l-9.703,16.755h6.0921l1.866-3.2185h11.129l1.8628,3.2185h6.0888l-9.635-16.677c-0.369-0.625-1.236-1.388-2.3-1.388m-1.5962,11.371h-3.4829l3.4829-6.0757,3.5275,6.0757h-3.5275z"/>
<path d="m203.5,61.976h-3.7114c-0.99993,0-1.9922,0.81822-2.249,1.619l-3.5971,9.7523-3.6048-9.9405c-0.3101-0.79211-1.2491-1.4308-2.2926-1.4308h-3.6134c-1.112,0-2.1119,0.8748-2.36,1.7355l-4.4241,16.332h6.165l2.7484-11.913,4.3501,11.913h6.0681l4.362-11.913,2.7756,11.913h6.1073l-4.3544-16.263c-0.24808-0.8748-1.2513-1.804-2.3698-1.804"/>
<path d="m229.74,73.222c2.9846,0,5.3467-2.7408,5.3467-5.6427,0-2.99-2.5559-5.6035-5.6644-5.6035h-17.773v18.067h6.0844v-6.8211h11.998zm-11.998-4.287v-2.6723h8.1975c1.8617,0,2.5091,0.05767,2.5091,1.2469,0,1.2415-0.57667,1.4254-2.5091,1.4254h-8.1975z"/>
<polygon points="127.08,73.565,132.67,73.565,132.67,60.898,139.47,60.898,139.47,56.96,120.34,56.96,120.34,60.898,127.08,60.898" transform="matrix(1.0880619,0,0,1.0880619,0,-4.4141731e-6)"/>
<path d="m153.41,67.455v7.1268c0,3.1913,2.3807,5.4621,5.3544,5.4621h17.59v-4.1466h-14.237c-1.3731,0-2.8616-1.1142-2.8616-2.6734v-3.3491l2.1282,3.0944h14.97l-2.7365-3.8507h-14.35v-0.49394c0.19476-1.112,1.2415-2.4188,2.7343-2.4188h14.364v-4.2293h-17.534c-3.3512,0-5.4088,2.7463-5.4088,5.4795"/>
</g>
</svg>
